<?xml version="1.0" encoding="UTF-8"?>
<svg version="1.1" xmlns="http://www.w3.org/2000/svg" width="200" height="166">
<path d="M0 0 C2.98399955 3.17882462 4.80451535 7.03719775 6.78686523 10.88720703 C7.75088208 12.69953901 8.7170641 14.51072078 9.68530273 16.32080078 C10.16451172 17.22169434 10.6437207 18.12258789 11.13745117 19.05078125 C13.13434957 22.74148985 15.25944099 26.34816491 17.41186523 29.94970703 C21.29736073 36.48165324 25.06241124 43.07467991 28.78686523 49.69970703 C33.29900361 57.72165685 37.88313052 65.69658233 42.53686523 73.63720703 C47.32518966 81.81254219 52.05839839 90.01636281 56.72436523 98.26220703 C57.26512695 99.21611328 57.80588867 100.17001953 58.36303711 101.15283203 C66.74150297 116.00508058 66.74150297 116.00508058 65.53686523 122.63720703 C62.84141659 127.73930625 60.01543413 130.8110174 54.53686523 132.63720703 C52.77433717 132.73379589 51.00837397 132.77215351 49.24320984 132.77764893 C47.59664902 132.78621414 47.59664902 132.78621414 45.91682434 132.79495239 C44.71208969 132.79607025 43.50735504 132.79718811 42.26611328 132.79833984 C40.99759521 132.80330475 39.72907715 132.80826965 38.42211914 132.81338501 C34.94060052 132.82650113 31.45910118 132.83295248 27.97756171 132.83739567 C25.80171242 132.84032782 23.62586839 132.84443291 21.45002174 132.84889984 C14.64020045 132.86257303 7.83039118 132.87224042 1.02055711 132.87610173 C-6.83644897 132.88058146 -14.69328099 132.89812601 -22.55023414 132.92710233 C-28.6259256 132.94873038 -34.70156813 132.95880662 -40.77729768 132.96014285 C-44.4048613 132.96119013 -48.03226127 132.96708125 -51.65978432 132.98496246 C-55.70802976 133.00452939 -59.7559117 133.00014973 -63.80419922 132.99365234 C-65.00286118 133.00286713 -66.20152313 133.01208191 -67.43650818 133.02157593 C-77.67444276 132.9700316 -77.67444276 132.9700316 -82.46313477 129.63720703 C-86.21508442 125.47964119 -87.91412986 122.70103997 -87.8293457 116.99609375 C-87.09211816 112.24736541 -84.47616968 108.30048965 -82.08813477 104.19970703 C-81.2726416 102.7543457 -81.2726416 102.7543457 -80.44067383 101.27978516 C-78.8010144 98.3871694 -77.13702373 95.51012642 -75.46313477 92.63720703 C-74.99423828 91.82880371 -74.5253418 91.02040039 -74.04223633 90.1875 C-71.96178668 86.60860381 -69.86224032 83.04174194 -67.74438477 79.48486328 C-65.69317698 76.03750535 -63.69437457 72.5628644 -61.71313477 69.07470703 C-58.72394014 63.81660564 -55.68362464 58.59091296 -52.62475586 53.37304688 C-47.00720493 43.78835968 -41.48949852 34.15798805 -36.08813477 24.44970703 C-28.27182969 10.44419518 -28.27182969 10.44419518 -24.90063477 4.82470703 C-24.3424707 3.89013672 -23.78430664 2.95556641 -23.20922852 1.99267578 C-20.72551627 -1.35783538 -18.02268933 -3.78822023 -14.08813477 -5.23779297 C-8.45126888 -5.50621515 -4.22611454 -3.65057365 0 0 Z M-11.46313477 13.63720703 C-11.86516113 14.36609131 -12.2671875 15.09497559 -12.68139648 15.84594727 C-20.09667962 29.2770243 -27.56278978 42.6589071 -35.40600586 55.84619141 C-37.0392166 58.61322004 -38.62587358 61.40612734 -40.21313477 64.19970703 C-43.27017911 69.5773822 -46.3798056 74.9220966 -49.5065918 80.25952148 C-54.51286882 88.80863039 -59.49765944 97.36786716 -64.33813477 106.01220703 C-64.97211182 107.1351416 -64.97211182 107.1351416 -65.61889648 108.28076172 C-67.72982237 111.74866486 -67.72982237 111.74866486 -68.46313477 115.63720703 C-30.18313477 115.63720703 8.09686523 115.63720703 47.53686523 115.63720703 C44.12328479 108.81004615 40.94120856 102.45890116 36.99731445 96.02783203 C34.60763669 92.11614286 32.36256342 88.1229505 30.09936523 84.13720703 C25.43893805 75.95477762 20.74767081 67.79073261 16.03686523 59.63720703 C11.34991034 51.52367496 6.67987236 43.40096877 2.03686523 35.26220703 C0.62500189 32.79045617 -0.78727397 30.31894205 -2.19995117 27.84765625 C-3.01282564 26.42520448 -3.8250526 25.00238237 -4.63647461 23.57910156 C-5.63744662 21.825492 -6.64378608 20.07494907 -7.65063477 18.32470703 C-8.18043945 17.40044922 -8.71024414 16.47619141 -9.25610352 15.52392578 C-9.65442383 14.90130859 -10.05274414 14.27869141 -10.46313477 13.63720703 C-10.79313477 13.63720703 -11.12313477 13.63720703 -11.46313477 13.63720703 Z " fill="#6A85F0" transform="translate(110.463134765625,5.36279296875)"/>
<path d="M0 0 C2.63016161 2.1727422 4.47336894 3.94673788 6 7 C6.6861033 15.15556753 5.30763852 22.80352036 3.625 30.75 C1.71985158 40.14677204 0.05378155 49.46878178 -1 59 C-2.65 59 -4.3 59 -6 59 C-6.10489746 58.07441284 -6.10489746 58.07441284 -6.21191406 57.13012695 C-7.60735847 44.99177975 -9.13142935 32.97300123 -11.81738281 21.04223633 C-12.97454115 15.57449726 -13.38389262 10.48015938 -12 5 C-8.61725876 0.12487292 -5.85513812 -1.04556038 0 0 Z " fill="#6C87F3" transform="translate(103,37)"/>
<path d="M0 0 C3.14069378 2.20697401 3.90376907 3.69432528 5.0625 7.375 C4.99685631 11.18233387 4.3928135 13.11286573 1.73046875 15.89453125 C-1.65561394 18.05764953 -5.17843468 17.82860108 -9 17 C-12.12785483 14.96689436 -12.80934494 13.59738585 -13.9375 10.0625 C-14.01401228 6.31339817 -13.3485228 4.89651146 -11 2 C-7.14808282 -1.12317609 -4.72449837 -1.50781863 0 0 Z " fill="#6A86F0" transform="translate(104,102)"/>
<path d="M0 0 C1.32 0 2.64 0 4 0 C4.66 1.98 5.32 3.96 6 6 C6.66 4.02 7.32 2.04 8 0 C9.65 0 11.3 0 13 0 C13 5.94 13 11.88 13 18 C12.01 18 11.02 18 10 18 C9.67 16.02 9.34 14.04 9 12 C8.67 12.99 8.34 13.98 8 15 C6.68 15 5.36 15 4 15 C3.67 13.35 3.34 11.7 3 10 C2.67 12.64 2.34 15.28 2 18 C1.01 18 0.02 18 -1 18 C-1.18451025 5.33029613 -1.18451025 5.33029613 0 0 Z " fill="#E50000" transform="translate(126,145)"/>
<path d="M0 0 C2.97 0 5.94 0 9 0 C9.99 0.99 10.98 1.98 12 3 C11.73897585 6.48032201 10.96602468 8.05096298 9 11 C10.32 13.31 11.64 15.62 13 18 C11.68 18 10.36 18 9 18 C6.875 15.0625 6.875 15.0625 5 12 C4.34 11.67 3.68 11.34 3 11 C3 13.31 3 15.62 3 18 C2.01 18 1.02 18 0 18 C0 12.06 0 6.12 0 0 Z M3 3 C3 4.65 3 6.3 3 8 C4.65 8 6.3 8 8 8 C8.59070014 6.05396726 8.59070014 6.05396726 9 4 C7.93354885 2.70366379 7.93354885 2.70366379 5.4375 2.9375 C4.633125 2.958125 3.82875 2.97875 3 3 Z " fill="#F10000" transform="translate(157,145)"/>
<path d="M0 0 C8 0 8 0 11 2 C13.23107776 5.34661663 13.70428739 7.12840645 13.40625 11.0625 C12.70009046 14.43033781 11.71195062 15.88335562 9 18 C6.03 18 3.06 18 0 18 C0 12.06 0 6.12 0 0 Z M3 3 C3 7.29 3 11.58 3 16 C7.86132495 15.50847518 7.86132495 15.50847518 10 13 C10.3176246 11.08993694 10.3176246 11.08993694 10.25 9 C10.25515625 8.29875 10.2603125 7.5975 10.265625 6.875 C10.15705515 4.7564331 10.15705515 4.7564331 8 3 C6.35 3 4.7 3 3 3 Z " fill="#B70000" transform="translate(20,145)"/>
<path d="M0 0 C1.32 0 2.64 0 4 0 C4.83887056 2.43572059 5.67126529 4.87333217 6.5 7.3125 C6.73847656 8.00279297 6.97695312 8.69308594 7.22265625 9.40429688 C8.23208263 12.38931489 9 14.82658914 9 18 C8.01 18 7.02 18 6 18 C5.67 17.01 5.34 16.02 5 15 C2.69 14.67 0.38 14.34 -2 14 C-2.33 15.32 -2.66 16.64 -3 18 C-3.66 18 -4.32 18 -5 18 C-4.42934122 11.58008874 -2.32655091 5.98410537 0 0 Z M1 5 C0.67 6.98 0.34 8.96 0 11 C1.32 10.67 2.64 10.34 4 10 C3.34 8.35 2.68 6.7 2 5 C1.67 5 1.34 5 1 5 Z " fill="#DA0000" transform="translate(100,145)"/>
<path d="M0 0 C3.63 0 7.26 0 11 0 C11 0.99 11 1.98 11 3 C8.69 3 6.38 3 4 3 C4 4.32 4 5.64 4 7 C5.98 7 7.96 7 10 7 C10 7.99 10 8.98 10 10 C7.69 10 5.38 10 3 10 C3 11.98 3 13.96 3 16 C5.97 16 8.94 16 12 16 C12 16.66 12 17.32 12 18 C8.04 18 4.08 18 0 18 C0 12.06 0 6.12 0 0 Z " fill="#D80000" transform="translate(142,145)"/>
<path d="M0 0 C-0.33 0.99 -0.66 1.98 -1 3 C-3.64 2.67 -6.28 2.34 -9 2 C-9 2.99 -9 3.98 -9 5 C-7.3603125 5.4021875 -7.3603125 5.4021875 -5.6875 5.8125 C-0.48952676 7.48642358 -0.48952676 7.48642358 1 10 C0.75546876 13.34192692 0.39456443 14.60543557 -2 17 C-3.875 17.23046875 -3.875 17.23046875 -6 17.1875 C-6.70125 17.18105469 -7.4025 17.17460937 -8.125 17.16796875 C-10 17 -10 17 -12 16 C-12 15.01 -12 14.02 -12 13 C-9.36 13.33 -6.72 13.66 -4 14 C-3.34 12.68 -2.68 11.36 -2 10 C-3.093125 9.731875 -4.18625 9.46375 -5.3125 9.1875 C-10.51047324 7.51357642 -10.51047324 7.51357642 -12 5 C-11.9375 2.4375 -11.9375 2.4375 -11 0 C-7.34589678 -2.8710811 -3.93748732 -1.96874366 0 0 Z " fill="#C40000" transform="translate(62,146)"/>
<path d="M0 0 C3.63 0 7.26 0 11 0 C11 0.99 11 1.98 11 3 C10.01 3 9.02 3 8 3 C8 6.96 8 10.92 8 15 C8.99 15.33 9.98 15.66 11 16 C11 16.66 11 17.32 11 18 C7.37 18 3.74 18 0 18 C0 17.34 0 16.68 0 16 C1.32 15.67 2.64 15.34 4 15 C4 11.04 4 7.08 4 3 C2.68 2.67 1.36 2.34 0 2 C0 1.34 0 0.68 0 0 Z " fill="#5D0000" transform="translate(111,145)"/>
<path d="M0 0 C0.33 0.99 0.66 1.98 1 3 C-0.3921875 2.9071875 -0.3921875 2.9071875 -1.8125 2.8125 C-4.88986806 2.77726381 -4.88986806 2.77726381 -6.9375 4 C-8.71298137 7.34208258 -7.65852695 10.34816871 -7 14 C-3.71303767 14.79953138 -2.28976808 15.09658936 1 14 C1.33 14.99 1.66 15.98 2 17 C-1.11549872 18.55774936 -4.6044388 18.56480622 -8 18 C-10.11344238 16.45500074 -10.87288902 15.42960295 -11.6171875 12.9140625 C-12.04421182 9.12260416 -12.26538102 6.65646884 -10.8125 3.0625 C-7.33634551 -0.89312408 -5.0578753 -1.40496536 0 0 Z " fill="#BC0000" transform="translate(77,145)"/>
<path d="M0 0 C3.63 0 7.26 0 11 0 C10.67 0.99 10.34 1.98 10 3 C9.34 3 8.68 3 8 3 C7.67 7.29 7.34 11.58 7 16 C8.32 16 9.64 16 11 16 C11 16.66 11 17.32 11 18 C7.37 18 3.74 18 0 18 C0 17.34 0 16.68 0 16 C1.32 16 2.64 16 4 16 C3.67 11.71 3.34 7.42 3 3 C2.01 3 1.02 3 0 3 C0 2.01 0 1.02 0 0 Z " fill="#F20000" transform="translate(36,145)"/>
<path d="M0 0 C0.99 0 1.98 0 3 0 C3 5.28 3 10.56 3 16 C5.64 16 8.28 16 11 16 C11 16.66 11 17.32 11 18 C7.37 18 3.74 18 0 18 C0 12.06 0 6.12 0 0 Z " fill="#B10000" transform="translate(82,145)"/>
<path d="M0 0 C2.4375 0.8125 2.4375 0.8125 4.4375 3.8125 C4.703125 5.75 4.703125 5.75 4.6875 7.8125 C4.69265625 8.493125 4.6978125 9.17375 4.703125 9.875 C4.4375 11.8125 4.4375 11.8125 2.4375 14.8125 C1.1175 14.4825 -0.2025 14.1525 -1.5625 13.8125 C-0.9025 13.1525 -0.2425 12.4925 0.4375 11.8125 C0.67962873 9.83121492 0.67962873 9.83121492 0.5625 7.6875 C0.52125 6.40875 0.48 5.13 0.4375 3.8125 C-1.5425 3.1525 -3.5225 2.4925 -5.5625 1.8125 C-2.5625 -0.1875 -2.5625 -0.1875 0 0 Z " fill="#D80000" transform="translate(28.5625,146.1875)"/>
<path d="M0 0 C0.66 0 1.32 0 2 0 C2 4.62 2 9.24 2 14 C3.32 14 4.64 14 6 14 C6 14.66 6 15.32 6 16 C2.37 16 -1.26 16 -5 16 C-5 15.34 -5 14.68 -5 14 C-3.35 14 -1.7 14 0 14 C0 9.38 0 4.76 0 0 Z " fill="#EE0000" transform="translate(116,147)"/>
<path d="M0 0 C3.63 0 7.26 0 11 0 C11 0.99 11 1.98 11 3 C4.375 3.25 4.375 3.25 1 1 C1 6.61 1 12.22 1 18 C0.67 18 0.34 18 0 18 C0 12.06 0 6.12 0 0 Z " fill="#6A0000" transform="translate(142,145)"/>
<path d="M0 0 C0.33 0.99 0.66 1.98 1 3 C-0.3921875 2.9071875 -0.3921875 2.9071875 -1.8125 2.8125 C-4.91538318 2.72956492 -4.91538318 2.72956492 -6.8125 4.1875 C-8.27538036 6.42031739 -8.64505955 8.37344067 -9 11 C-9.33 11 -9.66 11 -10 11 C-10.75 7.75 -10.75 7.75 -11 4 C-7.56468491 -0.50144735 -5.36826842 -1.27143199 0 0 Z " fill="#DF0000" transform="translate(77,145)"/>
<path d="M0 0 C3.63 0 7.26 0 11 0 C10.67 0.99 10.34 1.98 10 3 C9.34 3 8.68 3 8 3 C7.67 7.29 7.34 11.58 7 16 C6.67 16 6.34 16 6 16 C5.67 11.38 5.34 6.76 5 2 C3.35 2.33 1.7 2.66 0 3 C0 2.01 0 1.02 0 0 Z " fill="#850000" transform="translate(36,145)"/>
<path d="M0 0 C0.99 0 1.98 0 3 0 C3 4.29 3 8.58 3 13 C2.01 13 1.02 13 0 13 C0 8.71 0 4.42 0 0 Z " fill="#F70000" transform="translate(176,145)"/>
<path d="M0 0 C0.66 0.33 1.32 0.66 2 1 C1.67 1.99 1.34 2.98 1 4 C-1.97 3.67 -4.94 3.34 -8 3 C-8.33 3.99 -8.66 4.98 -9 6 C-9.33 5.01 -9.66 4.02 -10 3 C-6.48448245 -0.6753138 -5.00588137 -1.25147034 0 0 Z " fill="#BC0000" transform="translate(60,145)"/>
<path d="M0 0 C0.33 1.98 0.66 3.96 1 6 C0.01 6 -0.98 6 -2 6 C-2.33 5.01 -2.66 4.02 -3 3 C-5.31 2.67 -7.62 2.34 -10 2 C-9.67 1.34 -9.34 0.68 -9 0 C-5.44307323 -0.85056945 -3.50729422 -1.16909807 0 0 Z " fill="#AB0000" transform="translate(108,157)"/>
<path d="M0 0 C0.33 0.99 0.66 1.98 1 3 C4.43315137 4.17138134 4.43315137 4.17138134 8 5 C8.66 5.33 9.32 5.66 10 6 C9.67 6.66 9.34 7.32 9 8 C4.78087253 7.5205537 2.20336822 6.83374881 -1 4 C-0.67 2.68 -0.34 1.36 0 0 Z " fill="#EE0000" transform="translate(52,148)"/>
<path d="M0 0 C0 0.66 0 1.32 0 2 C0.66 2 1.32 2 2 2 C3.32 4.31 4.64 6.62 6 9 C4.68 9 3.36 9 2 9 C-0.125 6.125 -0.125 6.125 -2 3 C-2.66 2.34 -3.32 1.68 -4 1 C-2 0 -2 0 0 0 Z " fill="#B90000" transform="translate(164,154)"/>
<path d="M0 0 C1.65 0 3.3 0 5 0 C4.67 5.61 4.34 11.22 4 17 C3.67 17 3.34 17 3 17 C3 12.38 3 7.76 3 3 C2.01 2.67 1.02 2.34 0 2 C0 1.34 0 0.68 0 0 Z " fill="#BD0000" transform="translate(134,145)"/>
<path d="M0 0 C3.3125 -0.25 3.3125 -0.25 7 0 C8.9375 2 8.9375 2 10 4 C7.03 3.67 4.06 3.34 1 3 C0.67 2.01 0.34 1.02 0 0 Z " fill="#B70000" transform="translate(159,145)"/>
<path d="M0 0 C1.65 0 3.3 0 5 0 C6 3 6 3 5 6 C3.68 6 2.36 6 1 6 C0.67 4.02 0.34 2.04 0 0 Z " fill="#CC0000" transform="translate(129,154)"/>
<path d="M0 0 C0 0.66 0 1.32 0 2 C-2.95664519 3.4783226 -5.74229737 3.06032783 -9 3 C-9 2.34 -9 1.68 -9 1 C-2.25 -1.125 -2.25 -1.125 0 0 Z " fill="#D10000" transform="translate(79,160)"/>
<path d="M0 0 C0.763125 0.20625 1.52625 0.4125 2.3125 0.625 C2.3125 1.615 2.3125 2.605 2.3125 3.625 C-0.3275 2.965 -2.9675 2.305 -5.6875 1.625 C-2.6875 -0.375 -2.6875 -0.375 0 0 Z " fill="#AA0000" transform="translate(28.6875,146.375)"/>
<path d="M0 0 C0.99 0 1.98 0 3 0 C3.33 0.99 3.66 1.98 4 3 C2.68 3.33 1.36 3.66 0 4 C-0.33 3.34 -0.66 2.68 -1 2 C-0.67 1.34 -0.34 0.68 0 0 Z " fill="#AC0000" transform="translate(176,159)"/>
</svg>
